<svg width="15" height="19" viewBox="0 0 15 19" fill="none" xmlns="http://www.w3.org/2000/svg">
<path d="M1.87417 5.90047C1.62414 4.25197 2.78832 2.76753 4.56676 2.22285C4.88253 2.1262 5.22327 2.15366 5.51949 2.29964C5.8157 2.44561 6.04506 2.69909 6.16079 3.00838L6.73107 4.53088C6.82276 4.77578 6.8392 5.0425 6.77828 5.29681C6.71736 5.55112 6.58187 5.78144 6.38917 5.95822L4.69276 7.51419C4.6091 7.59105 4.54675 7.68826 4.51179 7.79636C4.47683 7.90446 4.47045 8.01977 4.49326 8.13107L4.50835 8.19932L4.55035 8.3706C4.58776 8.51497 4.6442 8.71841 4.7236 8.96122C4.8811 9.44357 5.13245 10.0919 5.50651 10.7397C5.88057 11.3874 6.31632 11.9294 6.65495 12.3068C6.83131 12.5033 7.01565 12.6924 7.20751 12.8738L7.26001 12.9223C7.34486 12.9975 7.44773 13.0494 7.5586 13.073C7.66946 13.0965 7.78455 13.091 7.89263 13.0569L10.0884 12.3658C10.3379 12.2874 10.6052 12.2853 10.8558 12.3598C11.1065 12.4343 11.3293 12.582 11.4954 12.7839L12.5343 14.0452C12.9674 14.5702 12.9162 15.3419 12.4181 15.8059C11.0571 17.0744 9.18545 17.335 7.88345 16.2876C6.28754 15.0004 4.94214 13.4306 3.91445 11.6564C2.87826 9.88348 2.18605 7.93086 1.87417 5.90113V5.90047ZM5.8681 8.21703L7.27642 6.92553C7.66182 6.57197 7.93281 6.11133 8.05465 5.60271C8.17648 5.09408 8.14361 4.56066 7.96023 4.07085L7.38929 2.54835C7.15637 1.92631 6.69499 1.41651 6.09919 1.12288C5.5034 0.829252 4.81805 0.773896 4.18285 0.968097C1.97457 1.64403 0.201385 3.62394 0.57676 6.09735C0.913415 8.29055 1.66083 10.4005 2.77979 12.3166C3.88824 14.2298 5.33931 15.9227 7.06051 17.3107C9.01285 18.8791 11.6208 18.3443 13.3133 16.766C13.7975 16.3146 14.0914 15.6956 14.1349 15.035C14.1785 14.3744 13.9684 13.7221 13.5475 13.2111L12.5087 11.9498C12.1763 11.5458 11.7307 11.2504 11.2292 11.1014C10.7277 10.9524 10.1931 10.9567 9.69404 11.1137L7.87163 11.6873C7.79006 11.6034 7.7102 11.5178 7.6321 11.4307C7.25757 11.0163 6.9262 10.5649 6.64314 10.0834C6.36757 9.59743 6.14219 9.08466 5.97048 8.55303C5.93407 8.44174 5.89993 8.32972 5.8681 8.21703Z" fill="#DEBA6C"/>
</svg>
